<mxfile host="app.diagrams.net" modified="2024-04-07T12:26:28.834Z" agent="Mozilla/5.0 (Macintosh; Intel Mac OS X 10_15_7) AppleWebKit/537.36 (KHTML, like Gecko) Chrome/120.0.0.0 Safari/537.36" version="24.2.2" etag="KyLu38C331i3akbBILqv" type="github">
  <diagram name="第 1 页" id="iNgHnpYzgfJ-TO6qZUMB">
    <mxGraphModel>
      <root>
        <mxCell id="0" />
        <mxCell id="1" parent="0" />
      </root>
    </mxGraphModel>
  </diagram>
</mxfile>
